<mxfile host="65bd71144e">
    <diagram name="PÃ¡gina-1" id="OjtvcCMZG0Ieuga6whUs">
        <mxGraphModel dx="878" dy="307" grid="1" gridSize="10" guides="1" tooltips="1" connect="1" arrows="1" fold="1" page="1" pageScale="1" pageWidth="827" pageHeight="1169" math="0" shadow="0">
            <root>
                <mxCell id="0"/>
                <mxCell id="1" parent="0"/>
                <mxCell id="isAb1LtqVANIC40lVANl-2" value="" style="rounded=0;whiteSpace=wrap;html=1;fillColor=#E6D0DE;" parent="1" vertex="1">
                    <mxGeometry x="50" y="40" width="810" height="950" as="geometry"/>
                </mxCell>
                <mxCell id="isAb1LtqVANIC40lVANl-7" value="" style="group" parent="1" vertex="1" connectable="0">
                    <mxGeometry x="140" y="340" width="150" height="110" as="geometry"/>
                </mxCell>
                <mxCell id="isAb1LtqVANIC40lVANl-4" value="" style="ellipse;whiteSpace=wrap;html=1;aspect=fixed;" parent="isAb1LtqVANIC40lVANl-7" vertex="1">
                    <mxGeometry width="60" height="60" as="geometry"/>
                </mxCell>
                <mxCell id="isAb1LtqVANIC40lVANl-6" value="" style="html=1;verticalLabelPosition=bottom;align=center;labelBackgroundColor=#ffffff;verticalAlign=top;strokeWidth=2;strokeColor=#0080F0;shadow=0;dashed=0;shape=mxgraph.ios7.icons.microphone;" parent="isAb1LtqVANIC40lVANl-7" vertex="1">
                    <mxGeometry x="24" y="18.75" width="12" height="22.5" as="geometry"/>
                </mxCell>
                <mxCell id="9" value="" style="group" vertex="1" connectable="0" parent="isAb1LtqVANIC40lVANl-7">
                    <mxGeometry x="90" width="60" height="60" as="geometry"/>
                </mxCell>
                <mxCell id="8" value="" style="ellipse;whiteSpace=wrap;html=1;aspect=fixed;" vertex="1" parent="9">
                    <mxGeometry width="60" height="60" as="geometry"/>
                </mxCell>
                <mxCell id="6" value="" style="html=1;verticalLabelPosition=bottom;align=center;labelBackgroundColor=#ffffff;verticalAlign=top;strokeWidth=2;strokeColor=#0080F0;shadow=0;dashed=0;shape=mxgraph.ios7.icons.pointer;fillColor=#3333FF;" vertex="1" parent="9">
                    <mxGeometry x="15" y="18.75" width="30" height="25" as="geometry"/>
                </mxCell>
                <mxCell id="isAb1LtqVANIC40lVANl-13" value="&lt;font face=&quot;Verdana&quot; style=&quot;font-size: 36px;&quot;&gt;SpeechWriter&lt;/font&gt;" style="text;html=1;strokeColor=none;fillColor=none;align=center;verticalAlign=middle;whiteSpace=wrap;rounded=0;" parent="1" vertex="1">
                    <mxGeometry x="219" y="60" width="390" height="30" as="geometry"/>
                </mxCell>
                <mxCell id="10" value="RAW TEXT" style="text;html=1;strokeColor=none;fillColor=none;align=center;verticalAlign=middle;whiteSpace=wrap;rounded=0;" vertex="1" parent="1">
                    <mxGeometry x="160" y="120" width="110" height="30" as="geometry"/>
                </mxCell>
                <mxCell id="11" value="" style="rounded=1;whiteSpace=wrap;html=1;strokeColor=#000066;fillColor=#000000;" vertex="1" parent="1">
                    <mxGeometry x="410" y="150" width="270" height="180" as="geometry"/>
                </mxCell>
                <mxCell id="12" value="EDITOR" style="text;html=1;strokeColor=none;fillColor=none;align=center;verticalAlign=middle;whiteSpace=wrap;rounded=0;" vertex="1" parent="1">
                    <mxGeometry x="490" y="120" width="110" height="30" as="geometry"/>
                </mxCell>
                <mxCell id="19" value="" style="group" vertex="1" connectable="0" parent="1">
                    <mxGeometry x="520" y="340" width="60" height="60" as="geometry"/>
                </mxCell>
                <mxCell id="20" value="" style="ellipse;whiteSpace=wrap;html=1;aspect=fixed;" vertex="1" parent="19">
                    <mxGeometry width="60" height="60" as="geometry"/>
                </mxCell>
                <mxCell id="21" value="" style="html=1;verticalLabelPosition=bottom;align=center;labelBackgroundColor=#ffffff;verticalAlign=top;strokeWidth=2;strokeColor=#0080F0;shadow=0;dashed=0;shape=mxgraph.ios7.icons.pointer;fillColor=#3333FF;" vertex="1" parent="19">
                    <mxGeometry x="15" y="18.75" width="30" height="25" as="geometry"/>
                </mxCell>
                <mxCell id="24" value="" style="group" vertex="1" connectable="0" parent="1">
                    <mxGeometry x="530" y="380" width="290" height="60" as="geometry"/>
                </mxCell>
                <mxCell id="27" value="" style="group" vertex="1" connectable="0" parent="24">
                    <mxGeometry x="244" y="-280" width="53" height="60" as="geometry"/>
                </mxCell>
                <mxCell id="25" value="" style="ellipse;whiteSpace=wrap;html=1;aspect=fixed;" vertex="1" parent="27">
                    <mxGeometry width="51.6" height="51.6" as="geometry"/>
                </mxCell>
                <mxCell id="23" value="" style="html=1;verticalLabelPosition=bottom;align=center;labelBackgroundColor=#ffffff;verticalAlign=top;strokeWidth=2;strokeColor=#0080F0;shadow=0;dashed=0;shape=mxgraph.ios7.icons.moon;fillColor=#000000;" vertex="1" parent="27">
                    <mxGeometry x="13.51499999999996" y="15.300000000000011" width="25.97" height="29.4" as="geometry"/>
                </mxCell>
                <mxCell id="34" value="" style="group" vertex="1" connectable="0" parent="1">
                    <mxGeometry x="750" y="170" width="90" height="70" as="geometry"/>
                </mxCell>
                <mxCell id="isAb1LtqVANIC40lVANl-8" value="&lt;font style=&quot;font-size: 14px;&quot;&gt;+&lt;/font&gt;" style="rounded=1;whiteSpace=wrap;html=1;" parent="34" vertex="1">
                    <mxGeometry y="50" width="30" height="20" as="geometry"/>
                </mxCell>
                <mxCell id="isAb1LtqVANIC40lVANl-9" value="&lt;font style=&quot;font-size: 14px;&quot;&gt;-&lt;/font&gt;" style="rounded=1;whiteSpace=wrap;html=1;" parent="34" vertex="1">
                    <mxGeometry x="60" y="50" width="30" height="20" as="geometry"/>
                </mxCell>
                <mxCell id="isAb1LtqVANIC40lVANl-12" value="&lt;font face=&quot;Verdana&quot;&gt;Page Font Size&lt;/font&gt;" style="text;html=1;strokeColor=none;fillColor=none;align=center;verticalAlign=middle;whiteSpace=wrap;rounded=0;" parent="34" vertex="1">
                    <mxGeometry x="17" width="60" height="30" as="geometry"/>
                </mxCell>
                <mxCell id="35" value="" style="rounded=1;whiteSpace=wrap;html=1;strokeColor=#000066;fillColor=#000000;" vertex="1" parent="1">
                    <mxGeometry x="80" y="150" width="270" height="180" as="geometry"/>
                </mxCell>
                <mxCell id="36" value="" style="rounded=1;whiteSpace=wrap;html=1;strokeColor=#000066;fillColor=#000000;" vertex="1" parent="1">
                    <mxGeometry x="99.5" y="490" width="711" height="410" as="geometry"/>
                </mxCell>
                <mxCell id="37" value="TABLE" style="text;html=1;strokeColor=none;fillColor=none;align=center;verticalAlign=middle;whiteSpace=wrap;rounded=0;" vertex="1" parent="1">
                    <mxGeometry x="410" y="460" width="60" height="30" as="geometry"/>
                </mxCell>
                <mxCell id="38" value="TEXT 1" style="rounded=1;whiteSpace=wrap;html=1;strokeColor=#FFFFFF;fillColor=#000000;" vertex="1" parent="1">
                    <mxGeometry x="140" y="525" width="200" height="95" as="geometry"/>
                </mxCell>
                <mxCell id="39" value="TEXT 2" style="rounded=1;whiteSpace=wrap;html=1;strokeColor=#FFFFFF;fillColor=#000000;" vertex="1" parent="1">
                    <mxGeometry x="140" y="650" width="120" height="80" as="geometry"/>
                </mxCell>
                <mxCell id="40" value="..." style="rounded=1;whiteSpace=wrap;html=1;strokeColor=#FFFFFF;fillColor=#000000;" vertex="1" parent="1">
                    <mxGeometry x="380" y="640" width="190" height="80" as="geometry"/>
                </mxCell>
            </root>
        </mxGraphModel>
    </diagram>
</mxfile>